<svg xmlns="http://www.w3.org/2000/svg" viewBox="0 0 2040 25.16"><defs><style>.cls-1{fill:none;stroke:#fff;stroke-miterlimit:10;stroke-width:1.16px;}</style></defs><title>Asset 1</title><g id="Layer_2" data-name="Layer 2"><g id="Layer_1-2" data-name="Layer 1"><path class="cls-1" d="M2040,.58c-21.25,0-21.25,24-42.5,24s-21.25-24-42.5-24-21.25,24-42.5,24-21.25-24-42.5-24-21.25,24-42.5,24-21.25-24-42.5-24-21.25,24-42.5,24-21.25-24-42.5-24-21.25,24-42.5,24-21.25-24-42.5-24-21.25,24-42.5,24-21.25-24-42.5-24-21.25,24-42.5,24-21.25-24-42.5-24-21.25,24-42.5,24-21.25-24-42.5-24-21.25,24-42.5,24-21.25-24-42.5-24-21.25,24-42.5,24-21.25-24-42.5-24-21.25,24-42.5,24-21.25-24-42.5-24-21.25,24-42.5,24-21.25-24-42.5-24-21.25,24-42.5,24S956.25.58,935,.58s-21.25,24-42.5,24S871.25.58,850,.58s-21.25,24-42.5,24S786.25.58,765,.58s-21.25,24-42.5,24S701.25.58,680,.58s-21.25,24-42.5,24S616.25.58,595,.58s-21.25,24-42.5,24S531.25.58,510,.58s-21.25,24-42.5,24S446.25.58,425,.58s-21.25,24-42.5,24S361.25.58,340,.58s-21.25,24-42.5,24S276.25.58,255,.58s-21.25,24-42.5,24S191.25.58,170,.58s-21.25,24-42.5,24S106.25.58,85,.58s-21.25,24-42.5,24S21.25.58,0,.58"/></g></g></svg>